{"title":"(Les Claypool) Primus Videoplasty - FULL [VHS-rip].wmv","uid":8867527,"size":1036237263,"categoryP":"video","categoryS":"music_videos","magnet":"?xt=urn:btih:82645d256e64682eedd904aae10df71ae6883905&amp;dn=%28Les+Claypool%29+Primus+Videoplasty+-+FULL+%5BVHS-rip%5D.wmv&amp;tr=udp%3A%2F%2Ftracker.openbittorrent.com%3A80&amp;tr=udp%3A%2F%2Fopen.demonii.com%3A1337&amp;tr=udp%3A%2F%2Ftracker.coppersurfer.tk%3A6969&amp;tr=udp%3A%2F%2Fexodus.desync.com%3A6969","seeders":1,"leechers":1,"uploader":"yousef86","files":-1,"time":1377962498,"description":"::Release Info::\n================\nRelease Title: (Les Claypool) Primus Videoplasty - FULL [VHS-rip]\nEncode date: UTC 2006-11-15 06:04:24.150\n\n::IMDB and TMDB Info::\n======================\nTMDB Link: http://www.themoviedb.org/movie/93988\nIMDB Link: http://www.imdb.com/title/tt0462013\nStoryline: Videoplasty is the third home video by Primus, following 1993's Cheesy Home Video and the fan club exclusive Horrible Swill. Videoplasty was released at the end of 1998 to compliment to the band's recent covers EP Rhinoplasty, and is composed mostly of highlights from a live show performed on October 14 that year at The Phoenix Theater in Petaluma, California. This live footage is interspersed with montages of clips filmed during previous tours and at other recent shows, footage shot backstage and in the studio, animations by bassist Les Claypool, and the band's then-current music videos, spanning back two years to the recording of the Brown Album and presented in approximate reverse-chronological order.\nGenre:\nRelease date: 28/12/1998\n\nGeneral\n=======\nComplete name                  : (Les Claypool) Primus Videoplasty - FULL [VHS-rip].wmv\nFormat                         : Windows Media\nFile size                      : 988 MiB\nDuration                       : 1h 27mn\nOverall bit rate mode          : Variable\nOverall bit rate               : 1 583 Kbps\nMaximum Overall bit rate       : 6 079 Kbps\nEncoded date                   : UTC 2006-11-15 06:04:24.150\n\nVideo\n=====\nID                             : 2\nFormat                         : VC-1\nFormat profile                 : MP@ML\nCodec ID                       : WMV3\nCodec ID/Info                  : Windows Media Video 9\nCodec ID/Hint                  : WMV3\nDescription of the codec       : Windows Media Video 9\nDuration                       : 1h 27mn\nBit rate mode                  : Variable\nBit rate                       : 1 405 Kbps\nWidth                          : 640 pixels\nHeight                         : 480 pixels\nDisplay aspect ratio           : 4:3\nFrame rate                     : 29.970 fps\nBit depth                      : 8 bits\nScan type                      : Progressive\nCompression mode               : Lossy\nBits/(Pixel*Frame)             : 0.153\nStream size                    : 877 MiB (89%)\n\nAudio\n=====\nID                             : 1\nFormat                         : WMA\nFormat version                 : Version 2\nCodec ID                       : 161\nCodec ID/Info                  : Windows Media Audio\nDescription of the codec       : Windows Media Audio 9.1 - VBR Quality 75, 44 kHz, stereo 1-pass VBR\nDuration                       : 1h 27mn\nBit rate mode                  : Variable\nBit rate                       : 163 Kbps\nChannel(s)                     : 2 channels\nSampling rate                  : 44.1 KHz\nBit depth                      : 16 bits\nStream size                    : 102 MiB (10%)","torrent":{"xt":"urn:btih:82645d256e64682eedd904aae10df71ae6883905","amp;dn":"%28Les+Claypool%29+Primus+Videoplasty+-+FULL+%5BVHS-rip%5D.wmv","amp;tr":["udp%3A%2F%2Ftracker.openbittorrent.com%3A80","udp%3A%2F%2Fopen.demonii.com%3A1337","udp%3A%2F%2Ftracker.coppersurfer.tk%3A6969","udp%3A%2F%2Fexodus.desync.com%3A6969"],"infoHash":"82645d256e64682eedd904aae10df71ae6883905","infoHashBuffer":{"type":"Buffer","data":[130,100,93,37,110,100,104,46,237,217,4,170,225,13,247,26,230,136,57,5]},"announce":[],"urlList":[]}}